<?xml version="1.0" encoding="UTF-8"?>
<svg width="21px" height="25px" viewBox="0 0 21 25" version="1.1" xmlns="http://www.w3.org/2000/svg" xmlns:xlink="http://www.w3.org/1999/xlink">
    <title>icon_apple</title>
    <g id="Home" stroke="none" stroke-width="1" fill="none" fill-rule="evenodd">
        <g id="scroll-1-copy-2" transform="translate(-253.000000, -9292.000000)" fill="#1A1A1A">
            <g id="Group-25" transform="translate(0.000000, 8730.000000)">
                <path d="M267.29723,565.991852 C268.196748,564.934116 268.804087,563.465467 268.638534,562 C267.342253,562.051364 265.770207,562.83728 264.840204,563.893652 C264.005406,564.831387 263.274724,566.3264 263.469823,567.762321 C264.917587,567.871413 266.395836,567.049588 267.295354,565.99367 L267.29723,565.991852 Z M270.543562,575.282384 C270.511671,572.116449 273.206942,570.598254 273.327472,570.522799 C271.812173,568.374599 269.452228,568.079597 268.610864,568.046414 C266.602191,567.849595 264.691535,569.193242 263.671487,569.193242 C262.654253,569.193242 261.0808,568.076415 259.415894,568.10596 C257.226661,568.13687 255.208138,569.340062 254.079754,571.240078 C251.805165,575.064655 253.497741,580.733339 255.714645,583.834729 C256.797537,585.353378 258.089129,587.059756 259.784988,586.998392 C261.418002,586.936119 262.03519,585.973383 264.010096,585.973383 C265.984534,585.973383 266.539346,586.998392 268.267565,586.965664 C270.024393,586.934755 271.138238,585.41747 272.213626,583.894275 C273.458319,582.131533 273.969516,580.426973 274,580.3397 C273.961074,580.322427 270.572639,579.064689 270.538872,575.283748 L270.543562,575.282384 L270.543562,575.282384 Z" id="icon_apple"></path>
            </g>
        </g>
    </g>
</svg>