<?xml version="1.0" encoding="UTF-8"?>
<svg width="103px" height="35px" viewBox="0 0 103 35" version="1.1" xmlns="http://www.w3.org/2000/svg" xmlns:xlink="http://www.w3.org/1999/xlink">
    <title>logo_lower_reverse</title>
    <g id="Home" stroke="none" stroke-width="1" fill="none" fill-rule="evenodd">
        <g id="landing-1" transform="translate(-44.000000, -35.000000)">
            <g id="logo_lower_reverse" transform="translate(44.000000, 35.000000)">
                <path d="M0.165613617,28.0485442 L5.88325148,28.0485442 L5.88325148,0 L0.165613617,0 L0.165613617,28.0485442 Z M93.8888049,11.6237361 L93.8888049,7.47401651 L88.171333,7.47401651 L88.171333,28.0684943 L93.8888049,28.0684943 L93.8888049,20.4611554 C93.8888049,15.5430382 96.2208748,13.1990189 100.019742,13.1990189 L100.321002,13.1990189 L100.321002,7.08981775 C96.9356003,6.93637561 95.0545079,8.78039403 93.8888049,11.6237361 L93.8888049,11.6237361 Z M70.905178,16.1377044 C71.3563215,13.4866312 72.8993053,11.7575672 75.2688875,11.7575672 C77.6761479,11.7575672 79.1806235,13.5247798 79.5187321,16.1377044 L70.905178,16.1377044 Z M75.2688875,7.06986759 C69.4008684,7.06986759 65.300575,11.9110094 65.300575,17.789793 L65.300575,17.8667684 C65.300575,24.1682384 69.7763234,28.5092097 75.8327338,28.5092097 C79.4810539,28.5092097 82.1895746,27.04939 84.070667,24.6673916 L80.7981339,21.708756 C79.2183018,23.207572 77.8258652,23.8220187 75.9082564,23.8220187 C73.3501168,23.8220187 71.5445469,22.4390049 70.9805346,19.7877622 L85.0103003,19.7877622 C85.0478126,19.2497822 85.0856569,18.7121413 85.0856569,18.2509671 C85.0856569,12.4106712 82.0013492,7.06986759 75.2688875,7.06986759 L75.2688875,7.06986759 Z M100.067609,24.2439988 C101.244735,24.2439988 102.157608,25.1874844 102.157608,26.3220558 L102.157608,26.3220558 L102.157608,26.3339987 C102.157608,27.46857 101.232723,28.4239986 100.067609,28.4239986 C98.8904822,28.4239986 97.9776087,27.4805129 97.9776087,26.3459415 L97.9776087,26.3459415 L97.9776087,26.3339987 C97.9776087,25.1994273 98.9024937,24.2439988 100.067609,24.2439988 Z M51.5592888,7.37709096 L55.3960002,19.9800311 L58.7060457,7.45406635 L64.3860052,7.45406635 L58.104521,28.202495 L52.9508955,28.202495 L49.0766717,15.5610671 L45.1272574,28.202495 L40.0114762,28.202495 L33.8053485,7.45406635 L39.598011,7.45406635 L42.8330318,19.9415434 L46.631733,7.37709096 L51.5592888,7.37709096 Z M100.067609,24.4709131 C99.0226086,24.4709131 98.2178386,25.3188559 98.2178386,26.3339987 L98.2178386,26.3339987 L98.2178386,26.3459415 C98.2178386,27.3610843 99.0105971,28.1970843 100.067609,28.1970843 C101.112609,28.1970843 101.917379,27.3491415 101.917379,26.3339987 L101.917379,26.3339987 L101.917379,26.3220558 C101.917379,25.306913 101.12462,24.4709131 100.067609,24.4709131 Z M100.223758,25.2113702 C100.728241,25.2113702 101.100597,25.4382844 101.100597,25.9279415 C101.100597,26.2742844 100.908413,26.5011987 100.620137,26.5967415 L100.620137,26.5967415 L101.172666,27.3730272 L100.536057,27.3730272 L100.067609,26.6922844 L99.7312868,26.6922844 L99.7312868,27.3730272 L99.202781,27.3730272 L99.202781,25.2113702 Z M100.187724,25.6651987 L99.7312868,25.6651987 L99.7312868,26.2623415 L100.187724,26.2623415 C100.427953,26.2623415 100.56008,26.142913 100.56008,25.9637701 C100.56008,25.7726844 100.415942,25.6651987 100.187724,25.6651987 L100.187724,25.6651987 Z" id="Combined-Shape" fill="#FFFFFF"></path>
                <path d="M34.4125922,21.692291 C34.4125922,28.8486996 28.6110505,34.6502017 21.4545929,34.6502017 C14.2981353,34.6502017 8.49659354,28.8486996 8.49659354,21.692291 C8.49659354,14.5357051 14.2981353,8.73420304 21.4545929,8.73420304 C28.6110505,8.73420304 34.4125922,14.5357051 34.4125922,21.692291" id="Fill-13" fill="#4BF4CE"></path>
            </g>
        </g>
    </g>
</svg>