<?xml version="1.0" encoding="UTF-8"?>
<svg width="132px" height="20px" viewBox="0 0 132 20" version="1.1" xmlns="http://www.w3.org/2000/svg" xmlns:xlink="http://www.w3.org/1999/xlink">
    <title>review_stars</title>
    <g id="Home" stroke="none" stroke-width="1" fill="none" fill-rule="evenodd">
        <g id="scroll-1" transform="translate(-895.000000, -294.000000)" fill="#FFBC00" fill-rule="nonzero">
            <g id="Group-16" transform="translate(329.000000, 287.000000)">
                <path d="M687.323614,7 L690.421231,13.5835921 L697.347711,14.6393202 L692.335663,19.763932 L693.518847,27 L687.323614,23.5835921 L681.128382,27 L682.311566,19.763932 L677.299518,14.6393202 L684.225998,13.5835921 L687.323614,7 Z M576.024096,7 L579.121713,13.077162 L586.048193,14.0516802 L581.036145,18.7820911 L582.219329,25.4615385 L576.024096,22.3079312 L569.828864,25.4615385 L571.012048,18.7820911 L566,14.0516802 L572.92648,13.077162 L576.024096,7 Z M604.024096,7 L607.121713,13.077162 L614.048193,14.0516802 L609.036145,18.7820911 L610.219329,25.4615385 L604.024096,22.3079312 L597.828864,25.4615385 L599.012048,18.7820911 L594,14.0516802 L600.92648,13.077162 L604.024096,7 Z M631.807229,7 L634.904845,13.077162 L641.831325,14.0516802 L636.819277,18.7820911 L638.002461,25.4615385 L631.807229,22.3079312 L625.611997,25.4615385 L626.795181,18.7820911 L621.783133,14.0516802 L628.709613,13.077162 L631.807229,7 Z M659.565422,7 L662.663038,13.077162 L669.589518,14.0516802 L664.57747,18.7820911 L665.760654,25.4615385 L659.565422,22.3079312 L653.370189,25.4615385 L654.553373,18.7820911 L649.541325,14.0516802 L656.467806,13.077162 L659.565422,7 Z" id="review_stars"></path>
            </g>
        </g>
    </g>
</svg>